<?xml version="1.0" encoding="utf-8"?>
<!-- Generator: Adobe Illustrator 21.0.0, SVG Export Plug-In . SVG Version: 6.00 Build 0)  -->
<svg version="1.1" id="Mode_Isolation" xmlns="http://www.w3.org/2000/svg" xmlns:xlink="http://www.w3.org/1999/xlink" x="0px"
	 y="0px" viewBox="0 0 408.2 373.4" style="enable-background:new 0 0 408.2 373.4;" xml:space="preserve">
<style type="text/css">
	.st0{fill:#FFFFFF;}
</style>
<g>
	<path class="st0" d="M135.6,373.4c0-3,0-5,0-7c0-38.8-0.1-77.7,0.1-116.5c0-3.7-1.1-5.6-4.5-7.1c-41.7-19.5-83.4-39.3-125.1-58.9
		c-1.7-0.8-3.4-1.7-6.2-3.1C131.8,120.4,262.6,60.4,394.4,0c-10.8,117.8-21.5,234.4-32.2,351.8c-2.1-1-3.8-1.6-5.4-2.4
		c-32.7-15.4-65.3-30.8-97.9-46.3c-3.3-1.6-5.8-1.6-9,0.4c-36.1,22.3-72.3,44.5-108.5,66.7C139.8,371.1,138.2,372,135.6,373.4z
		 M177.5,236.5c54.5,25.7,108.3,51.1,162.6,76.7c7.4-81,14.8-161.3,22.2-243C300.1,126.2,239,181.1,177.5,236.5z M60.8,181.1
		c0.9,0.6,1.3,1,1.7,1.2c29,13.7,58.1,27.4,87.1,41.2c2.8,1.4,4.2,0.1,6-1.6C211.3,171.8,267,121.6,322.8,71.5
		c7-6.3,14.1-12.7,21.1-19c-0.2-0.3-0.4-0.6-0.6-1C249.3,94.6,155.2,137.8,60.8,181.1z M226.6,287.9c-22.3-10.5-43.6-20.5-65.1-30.7
		c0,23.8,0,46.9,0,70.6C183.3,314.5,204.5,301.5,226.6,287.9z"/>
</g>
</svg>
