<?xml version="1.0" encoding="utf-8"?>
<!-- Generator: Adobe Illustrator 21.0.0, SVG Export Plug-In . SVG Version: 6.00 Build 0)  -->
<svg version="1.1" id="_x31_" xmlns="http://www.w3.org/2000/svg" xmlns:xlink="http://www.w3.org/1999/xlink" x="0px" y="0px"
	 viewBox="0 0 253.9 253.9" style="enable-background:new 0 0 253.9 253.9;" xml:space="preserve">
<style type="text/css">
	.st0{fill:#DBB166;}
</style>
<path class="st0" d="M199,10.1H53.8c-25.2,0-45.7,20.5-45.7,45.7v48.3v17.8V201c0,25.2,20.5,45.7,45.7,45.7H199
	c25.2,0,45.7-20.5,45.7-45.7v-79.1v-17.8V55.8C244.7,30.6,224.2,10.1,199,10.1z M212.1,37.4l5.2,0v5.2v34.9l-40,0.1l-0.1-40.1
	L212.1,37.4z M92.7,104.1c7.6-10.5,19.9-17.4,33.8-17.4c13.9,0,26.2,6.9,33.8,17.4c0.9,1.3,1.7,2.6,2.5,4c3.4,6,5.4,12.9,5.4,20.3
	c0,23-18.7,41.6-41.6,41.6c-23,0-41.6-18.7-41.6-41.6c0-7.4,2-14.3,5.4-20.3C90.9,106.7,91.8,105.4,92.7,104.1z M221.7,201
	c0,12.5-10.2,22.7-22.7,22.7H53.8c-12.5,0-22.7-10.2-22.7-22.7v-84.6v-12.3h35.3c-0.9,2.2-1.6,4.4-2.3,6.7
	c-1.6,5.6-2.5,11.5-2.5,17.6c0,35.7,29,64.7,64.7,64.7c35.7,0,64.7-29,64.7-64.7c0-6.1-0.9-12-2.5-17.6c-0.7-2.3-1.4-4.5-2.3-6.7
	h35.3v12.3V201z"/>
</svg>
