<?xml version="1.0" encoding="utf-8"?>
<!-- Generator: Adobe Illustrator 21.0.2, SVG Export Plug-In . SVG Version: 6.00 Build 0)  -->
<svg version="1.1" id="Calque_1" xmlns="http://www.w3.org/2000/svg" xmlns:xlink="http://www.w3.org/1999/xlink" x="0px" y="0px"
	 viewBox="0 0 59 69" style="enable-background:new 0 0 59 69;" xml:space="preserve">
<style type="text/css">
	.st0{fill:#DBB166;}
</style>
<g>
	<g>
		<path class="st0" d="M8,11.5c-1.6-1.1-2.9-2.7-3.6-4.6C4.1,5.8,3.8,4.8,3.2,3.8c-0.3,2.5,0.3,5,1.1,7.4c0.4,1,1,2.5,1.5,3.5
			C6.4,13.6,7.1,12.3,8,11.5z"/>
		<path class="st0" d="M56.5,3.8c-0.6,1-0.9,2-1.3,3.1c-0.6,1.8-1.9,3.4-3.5,4.5c1.1,0.9,1.7,1.9,2.2,3c0.5-1,1-2.1,1.4-3.3
			C56.2,8.8,56.8,6.3,56.5,3.8z"/>
		<path class="st0" d="M8.9,12c0.9,0.5,1.9,0.8,2.9,1.1c3.5,1.1,7,2.3,10.5,3.5c1.2,0.4,2.5,0.9,3.4,1.8c0.5,0.6,0.9,1.3,1.3,2
			c1.1,2,2.1,4.1,2.8,6.2c0.7-2.1,1.8-4.2,2.8-6.2c0.4-0.7,0.7-1.4,1.3-2c0.9-0.9,2.2-1.4,3.4-1.8c3.5-1.2,7-2.4,10.5-3.5
			c1-0.3,2-0.6,2.9-1.1c0.3-0.1,0.5-0.3,0.8-0.5c-5.2-6.2-13-10.1-21.7-10.1c-8.7,0-16.5,3.9-21.7,10.1C8.3,11.7,8.6,11.8,8.9,12z"
			/>
		<path class="st0" d="M41.7,18.9c-1.7,0.7-3.5,1.4-5.1,2.5c-1.6,1.1-3,2.5-3.8,4.2c1.4-1.3,2.8-2.3,4.4-3.2c1.6-0.8,3.3-1.5,5-2.1
			c1.7-0.7,3.5-1.3,5.1-2.3c1.6-1,3.2-2.3,4-4c-1.4,1.3-3,2.1-4.6,2.8C45.2,17.7,43.4,18.3,41.7,18.9z"/>
		<path class="st0" d="M22.9,21.4c-1.6-1.1-3.3-1.9-5.1-2.5c-1.7-0.6-3.5-1.2-5.1-1.9c-1.7-0.7-3.2-1.6-4.6-2.8c0.8,1.7,2.4,3,4,4
			c1.6,1,3.4,1.6,5.1,2.3c1.7,0.6,3.4,1.3,5,2.1c1.6,0.8,3.1,1.8,4.4,3.2C25.8,24,24.5,22.5,22.9,21.4z"/>
		<path class="st0" d="M53.9,14.6c-0.2,0.4-0.5,0.9-0.8,1.3c-1,1.5-2.3,2.8-3.7,4.1c-0.7,0.6-1.3,1.3-2.1,1.8
			c-3.1,2.2-7.1,2.4-10.6,3.9c-2.1,0.9-3.9,2.4-5.3,4.2c-0.4,0.5-0.7,1.1-1,1.7c0,0.2-0.1,0.4-0.2,0.6c-0.1,0.6-0.2,1.1,0,1.7
			c-0.2-0.3-0.4-0.6-0.6-0.8c-0.2,0.2-0.4,0.5-0.6,0.8c0.2-0.6,0.2-1.1,0-1.7c-0.1-0.2-0.1-0.4-0.2-0.6c-0.2-0.6-0.6-1.2-1-1.7
			c-1.4-1.8-3.2-3.3-5.3-4.2c-3.4-1.6-7.5-1.7-10.6-3.9c-0.7-0.5-1.4-1.2-2.1-1.8c-1.3-1.3-2.6-2.6-3.7-4.1
			c-0.3-0.4-0.5-0.9-0.8-1.3C3,19,1.4,24.2,1.4,29.8c0,23.6,10.5,11.1,28.4,38.3c16.4-25.7,28.4-13.5,28.4-38.3
			C58.3,24.2,56.7,19,53.9,14.6z M34.5,27.8c3.6-3.4,9.5-2.2,12.7-5.4c2,1.3,3.3,3.2,3.3,5.4c0,3.8-3.9,6.9-8.6,6.9
			c-4.1,0-6.6-2.3-7.3-5.3C34.6,29,34.5,28.2,34.5,27.8z M12.2,22.3c3.2,3.2,9.1,2,12.7,5.4c0,0.4,0,1.3-0.1,1.6
			c-0.7,3-3.2,5.3-7.3,5.3c-4.8,0-8.6-3.1-8.6-6.9C8.9,25.6,10.2,23.6,12.2,22.3z M20.9,36.6c-1.4,0.1-2.9,0.3-4.3,0.4
			c-1.5,0.2-3,0.3-4.5,0.2c-1.5-0.1-3.2-0.4-4.6-1.5c-0.7-0.5-1.2-1.2-1.6-1.9c-0.4-0.7-0.7-1.4-0.9-2.2c-0.4-1.5-0.5-3.1-0.4-4.6
			c0.3-3,1.7-6,4.1-7.8c-1.8,2.3-2.7,5.1-2.8,7.9c0,1.4,0.2,2.8,0.6,4.1c0.2,0.6,0.5,1.3,0.8,1.8c0.4,0.6,0.7,1.1,1.2,1.4
			c1,0.8,2.3,1.1,3.7,1.2c1.4,0.1,2.8,0.1,4.3,0.1c1.5,0,2.9-0.1,4.4,0c0.7,0.1,1.5,0.2,2.2,0.5c0.7,0.3,1.4,0.7,1.7,1.4
			c-0.5-0.5-1.2-0.8-1.9-0.9C22.3,36.6,21.6,36.6,20.9,36.6z M29.4,47.9c-0.9-3.2-2.2-6.4-4.5-9.4c2.7-0.9,4.3-2.5,5-4.6
			c0.8,2.4,2.4,4,5,4.7c-2.4,2.9-3.8,6-4.6,9.3C30.1,48.3,29.5,48.3,29.4,47.9z M51.9,36c-1.3,1.1-3,1.5-4.5,1.6
			c-1.5,0.1-3,0-4.4-0.2c-1.4-0.2-2.9-0.4-4.3-0.5c-1.4-0.1-2.9-0.1-3.9,1c0.4-0.6,1-1.1,1.7-1.4c0.7-0.3,1.5-0.4,2.2-0.4
			c1.5-0.1,2.9,0,4.4,0.1c1.4,0,2.8,0.1,4.2,0c1.3-0.1,2.6-0.5,3.5-1.3c0.5-0.4,0.8-0.9,1.1-1.5c0.3-0.6,0.6-1.2,0.7-1.8
			c0.4-1.3,0.5-2.7,0.5-4c-0.1-2.7-1-5.5-2.8-7.8c2.3,1.8,3.7,4.7,4.1,7.7c0.2,1.5,0.1,3-0.3,4.5C53.8,33.4,53.1,34.8,51.9,36z"/>
	</g>
	<path class="st0" d="M15.2,27.1c-1.6,2.1,2,5.4,4.8,4.2C22.9,29.3,17.1,24.6,15.2,27.1z"/>
	<path class="st0" d="M44.2,27.1c1.6,2.1-2,5.4-4.8,4.2C36.6,29.3,42.3,24.6,44.2,27.1z"/>
</g>
<g>
</g>
<g>
</g>
<g>
</g>
<g>
</g>
<g>
</g>
<g>
</g>
<g>
</g>
<g>
</g>
<g>
</g>
<g>
</g>
<g>
</g>
<g>
</g>
<g>
</g>
<g>
</g>
<g>
</g>
</svg>
