<?xml version="1.0" encoding="utf-8"?>
<!-- Generator: Adobe Illustrator 21.0.2, SVG Export Plug-In . SVG Version: 6.00 Build 0)  -->
<svg version="1.1" id="Calque_1" xmlns="http://www.w3.org/2000/svg" xmlns:xlink="http://www.w3.org/1999/xlink" x="0px" y="0px"
	 viewBox="0 0 55 47" style="enable-background:new 0 0 55 47;" xml:space="preserve">
<style type="text/css">
	.st0{fill:#DBB166;}
</style>
<g>
	<path class="st0" d="M27.2,31.1c0-0.1-0.2-0.1-0.3,0c-0.7,2-2.1,3.6-4.5,4.5c-0.1,0-0.1,0.1-0.1,0.2c2.1,3.1,3.4,6.4,4.2,9.7
		c0.1,0.5,0.8,0.5,0.9,0c0.8-3.4,2-6.6,4.2-9.6c0.1-0.1,0-0.2-0.1-0.2C29.5,35,28,33.4,27.2,31.1z"/>
	<path class="st0" d="M20.6,32.9c-0.7-0.3-1.4-0.4-2.1-0.4c-1.4-0.1-2.9-0.1-4.3,0c-1.4,0-2.8,0.1-4.1-0.1c-1.3-0.1-2.6-0.4-3.5-1.2
		c-0.5-0.3-0.8-0.8-1.2-1.4c-0.3-0.5-0.6-1.1-0.8-1.8C4.2,26.9,4,25.5,4,24.2c0-2.7,0.9-5.4,2.7-7.6c-2.2,1.8-3.6,4.6-3.9,7.5
		c-0.2,1.5,0,3,0.4,4.4c0.2,0.7,0.5,1.4,0.9,2.1c0.4,0.6,0.9,1.3,1.5,1.8c1.3,1,2.9,1.3,4.4,1.4c1.5,0.1,2.9,0,4.3-0.2
		c1.4-0.2,2.8-0.4,4.2-0.4c0.7,0,1.4,0,2,0.1c0.7,0.1,1.3,0.4,1.8,0.9C22,33.6,21.3,33.2,20.6,32.9z"/>
	<path class="st0" d="M46.9,16.9c1.7,2.2,2.6,4.9,2.7,7.5c0,1.3-0.1,2.6-0.5,3.9c-0.2,0.6-0.4,1.2-0.7,1.8c-0.3,0.5-0.7,1.1-1.1,1.4
		c-0.8,0.8-2.1,1.1-3.4,1.3c-1.3,0.2-2.7,0.1-4,0c-1.4-0.1-2.8-0.1-4.2,0c-0.7,0.1-1.4,0.2-2.1,0.4c-0.7,0.2-1.3,0.7-1.7,1.3
		c1-1,2.5-1,3.8-1c1.4,0.1,2.7,0.3,4.1,0.5c1.4,0.2,2.8,0.3,4.3,0.2c1.4-0.1,3-0.5,4.3-1.6c1.2-1.1,1.8-2.5,2.2-4
		c0.3-1.4,0.4-2.9,0.3-4.4C50.5,21.4,49.1,18.7,46.9,16.9z"/>
	<path class="st0" d="M52.8,1.7c-0.6,1-0.9,1.9-1.2,3c-0.7,2.1-2.3,3.9-4.3,4.9c-0.9,0.5-1.9,0.8-2.8,1.1c-3.4,1.1-6.7,2.2-10.1,3.4
		c-1.2,0.4-2.4,0.9-3.3,1.8c-0.5,0.5-0.9,1.2-1.2,1.9c-1,1.9-2,3.9-2.7,6c-0.7-2.1-1.7-4-2.7-6c-0.4-0.7-0.7-1.3-1.2-1.9
		c-0.9-0.9-2.1-1.4-3.3-1.8c-3.4-1.2-6.7-2.3-10.1-3.4c-1-0.3-1.9-0.6-2.8-1.1c-2-1-3.5-2.8-4.3-4.9c-0.4-1.1-0.6-2-1.2-3
		C1.1,4.1,1.7,6.5,2.5,8.8c0.6,1.6,1.2,3.2,2.2,4.6c1,1.5,2.3,2.7,3.5,3.9c0.6,0.6,1.3,1.2,2,1.8c2.9,2.1,6.9,2.3,10.2,3.8
		c2,0.9,3.8,2.3,5.1,4.1c0.4,0.5,0.7,1,0.9,1.6c0,0.2,0.1,0.4,0.2,0.6c0.1,0.5,0.2,1.1,0,1.6c0.2-0.3,0.4-0.5,0.5-0.8
		c0.2,0.2,0.4,0.5,0.5,0.8c-0.2-0.5-0.1-1.1,0-1.6c0.1-0.2,0.1-0.4,0.2-0.6c0.2-0.6,0.6-1.1,0.9-1.6c1.3-1.8,3.1-3.2,5.1-4.1
		c3.3-1.5,7.2-1.6,10.2-3.8c0.7-0.5,1.4-1.1,2-1.8c1.3-1.2,2.5-2.5,3.5-3.9c0.9-1.4,1.6-3,2.2-4.6C52.5,6.5,53.1,4.1,52.8,1.7z
		 M19.8,19.7c-1.5-0.8-3.1-1.4-4.8-2c-1.6-0.6-3.3-1.3-4.9-2.2c-1.6-0.9-3.1-2.2-3.9-3.8c1.3,1.2,2.8,2.1,4.4,2.7
		c1.6,0.7,3.3,1.2,4.9,1.8c1.7,0.6,3.4,1.4,4.9,2.4c1.5,1,2.8,2.4,3.6,4.1C22.7,21.5,21.3,20.5,19.8,19.7z M44,15.5
		c-1.6,0.9-3.3,1.6-4.9,2.2c-1.7,0.6-3.3,1.2-4.8,2c-1.5,0.8-2.9,1.8-4.3,3c0.8-1.6,2.1-3,3.6-4.1c1.5-1.1,3.2-1.8,4.9-2.4
		c1.7-0.6,3.3-1.2,4.9-1.8c1.6-0.7,3.1-1.5,4.4-2.7C47.1,13.3,45.6,14.5,44,15.5z"/>
	<path class="st0" d="M39,31.4c4.6,0,8.3-3,8.3-6.7c0-1.8-0.9-3.5-2.4-4.7c-0.4-0.3-0.9-0.3-1.3,0c-3,2.4-7.8,1.7-11.3,4.4
		c-0.3,0.2-0.4,0.5-0.4,0.9c0,0.4,0,0.8,0.1,1C32.6,29.3,35.1,31.4,39,31.4z M41.6,24.1c1.6,2.1-2,5.4-4.8,4.2
		C34,26.4,39.7,21.6,41.6,24.1z"/>
	<path class="st0" d="M22.2,26.3c0-0.2,0.1-0.7,0.1-1c0-0.3-0.1-0.7-0.4-0.9c-3.5-2.7-8.2-2-11.3-4.4c-0.4-0.3-0.9-0.3-1.3,0
		c-1.5,1.2-2.4,2.9-2.4,4.7c0,3.7,3.7,6.7,8.3,6.7C19.1,31.4,21.6,29.3,22.2,26.3z M12.6,24.1c1.9-2.5,7.6,2.2,4.8,4.2
		C14.6,29.5,11,26.2,12.6,24.1z"/>
</g>
<g>
</g>
<g>
</g>
<g>
</g>
<g>
</g>
<g>
</g>
<g>
</g>
<g>
</g>
<g>
</g>
<g>
</g>
<g>
</g>
<g>
</g>
<g>
</g>
<g>
</g>
<g>
</g>
<g>
</g>
</svg>
