<?xml version="1.0" encoding="utf-8"?>
<!-- Generator: Adobe Illustrator 21.0.0, SVG Export Plug-In . SVG Version: 6.00 Build 0)  -->
<svg version="1.1" id="_x31_" xmlns="http://www.w3.org/2000/svg" xmlns:xlink="http://www.w3.org/1999/xlink" x="0px" y="0px"
	 viewBox="0 0 216.5 178.9" style="enable-background:new 0 0 216.5 178.9;" xml:space="preserve">
<style type="text/css">
	.st0{fill:#DBB166;}
</style>
<path id="XMLID_47_" class="st0" d="M213.7,25.1c-7.7,3.4-15.9,5.6-24.6,6.6c8.8-5.2,15.6-13.5,18.8-23.3
	c-8.3,4.8-17.4,8.3-27.2,10.2c-7.8-8.2-18.9-13.3-31.2-13.3c-23.6,0-42.8,18.9-42.8,42.1c0,3.3,0.4,6.5,1.1,9.6
	c-35.6-1.8-67.1-18.5-88.2-44c-3.7,6.2-5.8,13.5-5.8,21.2c0,14.6,7.6,27.5,19,35.1c-7-0.2-13.6-2.1-19.4-5.3c0,0.2,0,0.4,0,0.5
	c0,5.4,1.1,10.5,2.9,15.3c5.2,13.2,17,23.2,31.4,26.1c-3.6,0.9-7.4,1.5-11.3,1.5c-2.7,0-5.4-0.3-8.1-0.8c5.5,16.7,21.3,28.9,40,29.3
	c-14.7,11.3-33.1,18-53.2,18c-3.5,0-6.9-0.2-10.2-0.6c19,12,41.5,18.9,65.6,18.9c66.9,0,108-46.4,118.9-94.5
	c1.9-8.5,2.9-17.1,2.9-25.4c0-1.8,0-3.6-0.1-5.5C200.7,41,207.9,33.5,213.7,25.1z"/>
</svg>
