<?xml version="1.0" encoding="utf-8"?>
<!-- Generator: Adobe Illustrator 21.0.0, SVG Export Plug-In . SVG Version: 6.00 Build 0)  -->
<svg version="1.1" id="_x31_" xmlns="http://www.w3.org/2000/svg" xmlns:xlink="http://www.w3.org/1999/xlink" x="0px" y="0px"
	 viewBox="0 0 253.7 199.7" style="enable-background:new 0 0 253.7 199.7;" xml:space="preserve">
<style type="text/css">
	.st0{fill:#DBB166;}
</style>
<path class="st0" d="M236.9,53.6c0,0-2.2-16.2-9-23.4c-8.6-9.4-18.2-9.4-22.6-10c-31.6-2.4-79.1-2.4-79.1-2.4h-0.1
	c0,0-47.4,0-79.1,2.4c-4.4,0.5-14,0.6-22.6,10c-6.8,7.1-9,23.4-9,23.4s-2.3,19.1-2.3,38.1v2.3v15.6c0,19.1,2.3,38.1,2.3,38.1
	s2.2,16.2,9,23.4c8.6,9.4,19.9,9.1,24.9,10.1c18.1,1.8,76.8,2.4,76.8,2.4s47.5-0.1,79.1-2.5c4.4-0.6,14-0.6,22.6-10
	c6.8-7.1,9-23.4,9-23.4s2.3-19.1,2.3-38.1V95v-3.3C239.2,72.7,236.9,53.6,236.9,53.6z M163.9,98.3l-61,33l0-50.8l0-15.4l27.5,15
	L163.9,98.3z"/>
</svg>
